<svg width="981" height="80" viewBox="0 0 981 80" fill="none" xmlns="http://www.w3.org/2000/svg">
<g clip-path="url(#clip0)">
<path d="M191.407 67.8689C190.941 68.4022 190.528 68.9446 190.019 69.4689C185.907 74.0429 180.829 75.7966 174.952 74.5401C169.426 73.3649 166.843 69.2248 165.762 63.9005C165.45 62.2692 165.3 60.6094 165.314 58.9468C165.261 52.5107 165.314 46.0745 165.314 39.6384C165.324 38.5541 165.269 37.4703 165.147 36.3932C164.928 34.748 164.058 34.3322 162.652 35.1819C161.956 35.6143 161.355 36.1913 160.887 36.8762C160.42 37.561 160.097 38.3386 159.938 39.1593C159.589 40.6398 159.403 42.1559 159.384 43.6791C159.323 50.4768 159.384 57.2384 159.384 64.0723C159.301 67.2585 159.836 70.4298 160.957 73.4011C159.639 74.0248 140.135 74.2056 137.623 73.6361C139.916 61.5412 138.501 49.3107 138.861 37.1525C138.861 36.3028 139.011 35.1728 137.983 34.9559C137.173 34.8653 136.358 35.0805 135.69 35.5615C134.797 36.2153 134.079 37.0913 133.605 38.1078C133.13 39.1243 132.913 40.248 132.975 41.374C132.975 47.8011 132.975 54.2372 132.896 60.6734C132.745 65.0834 133.294 69.4893 134.521 73.7175H107.735C108.288 70.6892 108.851 67.6158 109.404 64.5514L108.947 64.3977L107.955 66.2056C105.319 70.8791 101.743 74.1152 96.4106 75.1276C88.9079 76.5468 82.9865 72.5695 81.414 64.8678C81.1943 63.8101 81.0625 62.7344 80.8341 61.3785C80.5756 61.9981 80.2822 62.6018 79.9556 63.1864C78.4709 65.6271 77.2233 68.2757 75.4135 70.418C71.8994 74.5401 67.1904 75.896 62.0422 75.2361C56.894 74.5762 53.9421 71.2858 52.3783 66.4406C52.2641 66.0971 52.2202 65.7355 52.1148 65.392C52.0093 65.0485 51.8863 64.7231 51.7194 64.2711C50.9815 65.2474 50.3401 66.1875 49.6109 67.0553C45.6663 71.7017 40.4917 73.9254 34.7373 74.8745C32.7226 75.1923 30.6873 75.3524 28.6491 75.3536C20.2151 75.4079 11.7812 75.3536 3.34722 75.3536H-0.00878906C2.68832 67.5615 1.9767 59.7333 2.07334 51.9683C2.14362 46.9242 2.07334 41.8711 2.41597 36.7457C2.61803 37.3966 2.84645 38.0474 3.03095 38.7073C5.21808 47.1582 8.64258 55.2174 13.1868 62.6079C14.0223 64.0318 14.9967 65.3645 16.0948 66.5853C17.2957 67.896 18.6854 69.0088 20.2151 69.8847C24.7747 72.2892 29.554 69.3604 29.9405 64.0994C30.2 60.5173 29.1364 56.9663 26.9623 54.1559C24.0543 50.1875 20.3205 47.1141 16.578 44.0497C14.3289 42.2418 12.0096 40.4339 9.80446 38.5355C5.61384 34.9197 2.4599 30.5446 1.30902 24.9762C-0.843399 14.5265 5.03401 5.31521 15.2865 2.81125C20.6456 1.50956 25.8905 2.39545 31.1529 3.44403C33.2803 3.91461 35.4297 4.27363 37.5926 4.51973C41.8095 4.92651 46.0177 4.98076 49.8921 1.96155V32.9853L49.6724 33.0757C49.4879 32.6689 49.2859 32.2711 49.1102 31.8644C47.5112 28.0949 46.0529 24.2621 44.2694 20.5921C42.3842 16.5256 39.5977 12.9712 36.1342 10.2146C33.8765 8.32095 31.0009 7.38641 28.0956 7.60222C24.2827 7.9186 22.2621 10.8565 23.5799 14.5717C24.1523 16.039 24.9968 17.3776 26.0662 18.513C29.8614 22.7344 34.4825 25.9344 39.0949 29.1163C43.5464 32.0178 47.4784 35.6874 50.7179 39.9638C50.9226 40.1457 51.1466 40.3034 51.3856 40.4339V20.2214H74.7546V22.4452C74.7546 33.0757 74.7546 43.7062 74.7546 54.3367C74.731 55.4172 74.8462 56.4962 75.0973 57.5457C75.5893 59.3536 76.9949 59.661 78.2512 58.2689C79.6806 56.5461 80.4739 54.36 80.4915 52.0949C80.6496 49.5005 80.7726 46.8971 80.7902 44.2937C80.7902 37.1344 80.7902 29.9751 80.7902 22.8158V20.2485H105.899C105.385 22.1112 104.966 24 104.642 25.9073C104.356 28.346 104.209 30.8 104.203 33.2565C104.142 40.4158 104.203 47.5751 104.203 54.7344C104.179 55.7392 104.304 56.742 104.572 57.7084C105.055 59.2361 106.162 59.5163 107.331 58.6124C107.936 58.1858 108.429 57.6118 108.766 56.9414C109.104 56.2711 109.274 55.5253 109.264 54.7706C109.167 46.5265 109.343 38.2824 109.167 30.0384C109.097 26.7661 108.35 23.5118 107.902 20.1581H132.861V30.1016L133.221 30.2011C133.643 29.4146 134.047 28.6192 134.478 27.8418C136.823 23.6203 139.924 20.2847 144.721 19.1638C146.22 18.7785 147.763 18.6021 149.307 18.6395C153.744 18.8293 156.538 21.4327 158.093 25.5548C158.646 27.0101 159.024 28.5288 159.533 30.183C160.509 28.6282 161.29 27.209 162.266 25.8711C166.008 20.5559 171.104 18.2508 177.42 18.7661C182.015 19.1367 185.072 21.6768 186.891 25.9344C188.481 29.6497 188.833 33.618 188.885 37.5954C188.964 43.2361 188.885 48.8768 188.885 54.5175C188.9 55.4508 189.021 56.3791 189.246 57.2836C189.285 57.4801 189.362 57.6666 189.472 57.8325C189.582 57.9983 189.722 58.1403 189.886 58.2503C190.049 58.3602 190.231 58.4361 190.423 58.4734C190.615 58.5107 190.812 58.5088 191.003 58.4678C192.013 58.3593 191.951 57.5638 191.951 56.8497C191.951 47.6655 192.048 38.4813 191.872 29.2971C191.811 26.305 190.994 23.331 190.555 20.2576H215.487V30.2011L215.892 30.2915C216.137 29.8395 216.401 29.3875 216.629 28.9356C219.028 24.2169 222.217 20.4203 227.515 19.1457C228.876 18.7915 230.275 18.6153 231.679 18.6214C233.523 18.5771 235.337 19.1111 236.88 20.1525C238.422 21.1938 239.62 22.6934 240.315 24.4519C241.097 26.2146 241.589 28.0678 242.292 30.1649C242.713 29.4598 243.1 28.8361 243.469 28.2034C246.104 23.6836 249.469 20.1491 254.714 19.1638C256.507 18.8285 258.333 18.7132 260.152 18.8203C264.545 19.0734 267.611 21.5322 269.438 25.5728C270.917 29.1001 271.639 32.9142 271.556 36.7548C271.6 42.4678 271.556 48.1807 271.556 53.9299C271.544 54.6544 271.576 55.379 271.652 56.0994C271.714 56.601 271.854 57.0893 272.065 57.5457C272.138 57.7538 272.252 57.9441 272.4 58.1043C272.548 58.2646 272.727 58.3912 272.926 58.4763C273.124 58.5614 273.337 58.6029 273.552 58.5983C273.767 58.5938 273.979 58.5431 274.174 58.4497C275.149 58.07 274.762 57.3468 274.587 56.6418C273.226 51.0023 273.226 45.1061 274.587 39.4666C277.046 28.6824 284.452 21.6949 295.188 19.8598C300.946 18.7194 306.896 19.1908 312.416 21.2248C317.881 23.3672 322.01 26.8745 323.477 33.0214C325.19 40.2531 322.599 46.4813 316.308 50.1333C312.076 52.4619 307.358 53.7024 302.559 53.7491C301.443 53.7491 300.328 53.7491 298.896 53.7491C300.24 58.4497 302.023 62.5988 306.337 64.8497C309.93 66.7209 313.453 65.9706 316.721 63.774C319.612 61.8305 321.623 59.0644 323.503 56.1536C325.286 53.5491 326.164 50.4033 325.998 47.2226C325.752 42.531 325.902 37.8214 325.911 33.1209C326.055 28.7963 325.488 24.4778 324.233 20.348H349.491V33.9073L349.851 33.9706C350.212 32.6073 350.643 31.2646 351.142 29.948C352.174 27.4359 353.347 24.988 354.656 22.6169C355.262 21.6308 356.072 20.795 357.029 20.1698C357.986 19.5446 359.066 19.1454 360.191 19.0011C362.038 18.6158 363.958 18.8971 365.627 19.7978C367.296 20.6984 368.612 22.1633 369.354 23.9457C371.761 29.0802 370.496 37.3152 366.587 41.383C365.739 42.244 364.763 42.961 363.696 43.5073C358.944 45.9841 354.112 43.661 353.154 38.6802C351.537 39.7649 350.94 41.4463 350.518 43.2C350.114 44.6739 349.872 46.1901 349.798 47.7197C349.587 55.0146 349.13 62.3186 350.369 69.5683C350.606 70.9694 351.081 72.3344 351.494 73.9073H324.637C325.067 71.4937 325.665 69.0531 325.884 66.5853C326.104 64.1175 325.928 61.722 325.928 59.2994C316.431 78.3548 288.011 80.9943 276.959 62.9694C276.229 64.3073 275.579 65.6813 274.815 66.9017C271.503 72.3254 266.759 75.2361 260.442 75.1186C255.285 75.0192 251.657 72.4791 249.592 67.6339C248.518 64.9534 248 62.0714 248.072 59.1728C248.072 52.6644 248.072 46.1559 248.072 39.6474C248.072 38.7435 248.072 37.7672 247.949 36.8271C247.782 34.9468 246.807 34.4497 245.314 35.5073C244.621 36.0024 244.031 36.6348 243.578 37.3674C243.126 38.1 242.82 38.9182 242.678 39.774C242.395 41.1139 242.242 42.4796 242.221 43.8508C242.177 50.6485 242.221 57.4101 242.221 64.244C242.177 67.5583 242.749 70.8507 243.908 73.9435H220.188C221.874 68.3661 221.734 62.7977 221.751 57.2474C221.751 50.8113 221.751 44.3751 221.751 37.9389C221.751 36.8994 222.05 35.6067 220.803 35.1005C219.555 34.5943 218.439 35.218 217.763 36.122C216.948 37.1855 216.334 38.3966 215.953 39.6926C215.656 41.1053 215.535 42.5512 215.593 43.9954C215.593 49.3468 215.593 54.6983 215.593 60.0497C215.453 64.6667 216.013 69.2779 217.253 73.7175H190.405C190.8 71.7559 191.169 69.8757 191.547 67.9954L191.679 67.7242L191.407 67.8689ZM298.087 48.8858C301.865 49.0124 303.842 47.4033 304.782 43.5254C305.718 39.7409 305.936 35.8061 305.423 31.9367C305.233 30.1519 304.786 28.4062 304.097 26.757C302.858 24.0452 300.582 23.9367 298.913 26.4587C298.114 27.5509 297.591 28.8309 297.393 30.183C297.13 34.1966 297.059 38.2282 297.156 42.2508C297.339 44.4929 297.659 46.721 298.114 48.922L298.087 48.8858Z" fill="#FADD5E"/>
<path d="M497.709 18.5582H521.93V30.3909C523.687 27.7333 525.128 25.3017 526.762 22.9966C529.845 18.6847 534.098 16.922 539.237 17.1299C543.946 17.3197 547.223 19.5977 549.015 24.0632C550.242 27.3116 550.839 30.7756 550.772 34.2598C550.772 40.2621 550.772 46.2644 550.772 52.2666C550.761 53.2023 550.853 54.1362 551.045 55.0508C551.291 56.1084 551.923 56.8587 553.136 56.7231C553.728 56.552 554.248 56.1846 554.617 55.678C554.985 55.1713 555.181 54.5537 555.174 53.9209C554.814 50.4858 554.295 47.0418 554.207 43.5977C554.142 39.1607 555.144 34.7758 557.124 30.8339C558.557 27.7123 560.657 24.9647 563.268 22.7966C565.878 20.6285 568.932 19.0961 572.2 18.3141C577.727 16.7875 583.536 16.7036 589.103 18.07C591.309 18.5824 593.342 19.6936 594.989 21.2881C596.212 22.4508 597.048 23.9814 597.376 25.6614C597.704 27.3415 597.508 29.0852 596.816 30.644C596.089 32.2316 594.895 33.5443 593.404 34.3973C591.913 35.2503 590.2 35.6006 588.505 35.3988C586.877 35.2992 585.323 34.6664 584.07 33.593C582.816 32.5196 581.929 31.0618 581.539 29.4327C580.817 26.6799 581.111 23.7497 582.364 21.2067C582.602 20.7005 582.874 20.2034 583.243 19.5163C580.95 19.5706 579.588 20.8361 578.473 22.4361C576.949 24.803 576.069 27.5467 575.925 30.3819C575.081 38.1046 576.136 45.9217 578.991 53.1163C580.057 55.8886 581.768 58.3498 583.972 60.2847C587.961 63.6836 593.012 63.1593 596.333 59.0915C596.578 58.7933 596.731 58.4271 596.773 58.0393C596.816 57.6515 596.745 57.2594 596.57 56.913C594.657 50.738 594.504 44.128 596.131 37.8666C598.767 26.8384 605.971 20.9084 616.583 19.0101C622.353 17.8691 628.319 18.4525 633.776 20.6915C638.556 22.6983 642.166 25.9163 643.651 31.2226C645.733 38.6531 643.08 45.1525 636.465 48.8045C631.949 51.2994 627.056 52.0678 622.004 52.0406H619.939C620.229 59.1457 626.511 64.9762 632.792 64.0813C635.583 63.5733 638.14 62.1531 640.084 60.0316C642.765 57.2538 644.937 54.0019 646.498 50.4316C646.724 49.882 647.019 49.3653 647.376 48.8949C647.819 50.2898 647.865 51.7859 647.508 53.2067C646.436 57.8621 643.871 61.5954 640.664 64.9582C633.311 72.6508 617.497 76.5017 606.076 69.0892C603.237 67.248 600.789 64.8342 598.881 61.9932C598.512 62.3909 598.231 62.6802 598.002 62.9875C590.596 71.4757 581.31 74.061 570.671 72.0271C564.952 70.9062 561.007 67.0372 558.143 61.9028C557.695 61.0892 557.265 60.2395 556.764 59.1367C556.412 59.7514 556.149 60.1853 555.885 60.6282C554.89 62.6154 553.787 64.5438 552.582 66.4045C549.173 71.0779 544.438 72.8768 538.877 72.4067C534.484 72.0361 531.453 69.6135 529.661 65.5096C528.613 62.9727 528.093 60.2385 528.132 57.4824C528.132 50.4678 528.112 43.4531 528.071 36.4384C528.071 35.0553 528.22 33.5819 526.577 32.9943C525.532 32.6056 524.214 33.4463 523.423 35.3084C522.672 36.8567 522.213 38.5377 522.07 40.2621C521.971 48.3555 522.012 56.4489 522.193 64.5423C522.246 66.6666 522.967 68.7728 523.406 70.9966H497.445C497.981 68.574 498.499 66.2056 499.026 63.8463L498.535 63.5841L497.498 65.1751C496.004 67.6498 493.862 69.6409 491.318 70.92C488.774 72.1992 485.932 72.7144 483.116 72.4067C478.548 72.0813 475.411 69.5954 473.593 65.3017C473.259 64.5152 472.969 63.7017 472.574 62.6712C472.117 63.3401 471.783 63.8553 471.414 64.3435C467.707 69.2791 463.129 72.4791 456.769 72.3525C450.891 72.2079 446.789 69.0621 445.119 63.2316C444.752 61.5082 444.286 59.8088 443.723 58.1423C443.663 58.4862 443.559 58.8205 443.415 59.1367C438.144 67.7604 430.316 71.9186 420.749 73.0937C418.999 73.2992 417.239 73.3958 415.478 73.383C406.271 73.383 397.064 73.383 387.856 73.383H385.563C387.865 67.2542 387.496 61.0983 387.514 54.9875C387.555 42.9348 387.575 30.858 387.575 18.757C387.633 16.3016 387.553 13.8449 387.338 11.3988C387.083 8.98526 386.46 6.60787 385.976 4.10391C386.451 4.10391 387.075 4.00448 387.69 4.00448C397.061 4.00448 406.405 4.00448 415.724 4.00448C420.375 3.96438 424.997 4.7692 429.376 6.38189C437.889 9.59092 443.195 15.9638 446.191 24.5966C448.411 30.8824 449.158 37.6188 448.37 44.2576C455.161 37.5683 463.402 36.6372 471.915 36.4565C472.032 35.9364 472.109 35.4073 472.143 34.8745C472.143 31.6203 472.222 28.357 472.011 25.1209C471.739 21.0892 469.824 19.4802 465.906 19.6971C464.855 19.7805 463.81 19.9315 462.778 20.1491C462.323 20.2662 461.877 20.4173 461.443 20.6011C462.084 21.3785 462.637 21.9932 463.129 22.6531C464.07 23.7958 464.617 25.2265 464.686 26.7225C464.754 28.2185 464.34 29.6958 463.507 30.9243C462.605 32.2299 461.331 33.2148 459.861 33.7428C458.391 34.2707 456.798 34.3156 455.302 33.8711C453.888 33.399 452.656 32.478 451.783 31.2403C450.911 30.0027 450.441 28.5122 450.443 26.983C450.429 25.4151 450.845 23.8748 451.642 22.5384C452.439 21.2019 453.585 20.1233 454.95 19.4259C457.892 17.8559 461.103 16.8889 464.403 16.5785C470.406 15.7257 476.513 16.0756 482.387 17.609C489.336 19.4169 493.465 23.8915 494.326 31.2858C494.585 33.7991 494.717 36.3246 494.722 38.8519C494.783 43.2632 494.722 47.6745 494.722 52.0858C494.723 53.023 494.808 53.958 494.976 54.8791C495.17 55.9548 495.741 56.8678 496.936 56.687C497.464 56.6268 497.959 56.3901 498.345 56.013C498.73 55.6359 498.985 55.1391 499.07 54.5988C499.097 54.3858 499.097 54.1701 499.07 53.957C499.07 45.3514 499.149 36.7819 498.956 28.1401C498.947 24.9762 498.174 21.7853 497.709 18.5582ZM413.027 8.61465V68.818C416.049 69.5774 418.35 68.583 419.58 65.5457C420.568 63.0785 421.293 60.5083 421.742 57.8802C423.607 46.2493 423.821 34.4012 422.374 22.7073C421.972 19.2038 421.194 15.7568 420.055 12.4293C418.948 9.05758 416.655 8.0994 413.027 8.61465ZM617.277 36.2485C617.743 39.9186 618.094 43.0734 618.578 46.1921C618.841 47.8734 619.298 48.1084 620.879 47.774C623.462 47.2135 624.789 45.2881 625.439 42.8836C626.725 37.9819 626.833 32.8323 625.755 27.8779C625.512 26.8271 625.06 25.8393 624.429 24.9762C623.252 23.322 621.635 23.1683 620.326 24.6779C619.368 25.7226 618.671 26.9915 618.297 28.3751C617.725 31.1231 617.559 33.9344 617.277 36.2485ZM471.563 40.2531C470.456 40.376 469.414 40.8569 468.589 41.6267C467.763 42.3965 467.196 43.4157 466.969 44.5378C465.979 48.5274 465.788 52.6823 466.406 56.7502C466.793 58.9649 467.759 60.122 469.13 60.0587C470.369 60.0045 471.493 58.8022 471.572 56.7593C471.757 51.3356 471.739 45.9751 471.783 40.5875C471.783 40.47 471.66 40.3615 471.563 40.2531Z" fill="#61BBDA"/>
<path d="M964.28 35.5073C962.662 38.2046 961.584 41.2072 961.109 44.339C960.208 51.4441 960.208 58.6395 961.109 65.7446C961.366 67.1486 961.709 68.5345 962.137 69.8938H936.536C937.732 65.7299 938.202 61.381 937.924 57.0486C937.562 57.4009 937.227 57.7817 936.923 58.1875C932.416 65.8079 925.651 69.8395 917.252 71.2949C911.192 72.4991 904.914 71.5124 899.48 68.5017C892.451 64.5604 888.718 58.3503 887.786 50.2779C887.452 47.2949 887.514 47.2859 884.167 46.6621C883.921 47.4938 883.64 48.3616 883.411 49.2384C882.187 54.458 879.863 59.337 876.603 63.5299C869.768 71.9909 857.556 74.287 848.551 68.809C846.554 67.6482 844.799 66.0921 843.39 64.2303C841.98 62.3685 840.942 60.238 840.337 57.9616C840.187 57.4282 840.003 56.9039 839.739 56.0542C839.256 56.7231 838.861 57.1299 838.641 57.5819C833.985 65.7175 826.948 69.9751 818.013 71.3491C810.879 72.452 804.29 71.1593 798.36 66.8926C792.562 62.7254 789.663 56.7864 789.118 49.6452C788.881 46.4994 789.074 43.3175 789.074 39.9819C786.851 40.6599 784.752 41.7898 782.371 40.9672C779.99 40.1446 778.637 38.3005 777.855 35.5435C777.508 35.9529 777.191 36.388 776.906 36.8452C775.011 40.8471 773.997 45.23 773.937 49.6813C773.743 55.1051 773.647 60.5288 774.578 65.8892C774.807 67.2271 775.193 68.5198 775.545 69.9661H750.225C750.585 67.1819 751.104 64.5424 751.235 61.8305C751.455 57.2203 751.455 52.583 751.455 47.9638C751.455 46.1559 751.174 46.0203 748.345 46.2101C748.117 47.0237 747.871 47.9186 747.625 48.8045C746.233 54.1284 743.786 59.0987 740.438 63.4034C735.272 69.8938 728.464 72.1446 720.557 71.539C716.829 71.2827 713.198 70.207 709.909 68.3842C702.547 64.3164 698.734 57.844 698.031 49.4011C697.82 46.8972 698.031 44.3661 698.031 41.3649C697.12 41.7104 696.238 42.1337 695.396 42.6305C693.751 43.8362 692.42 45.4401 691.521 47.3004C690.622 49.1607 690.181 51.2202 690.239 53.2972C690.186 60.1672 690.239 67.0373 690.239 73.9073V74.9921C685.767 69.2429 680.75 63.9186 677.649 56.6056C674.855 64.1717 669.892 69.8666 665.236 76.4926V74.1785C665.236 54.0746 665.236 33.9706 665.236 13.8666C665.236 9.22936 665.332 4.6011 663.215 0.045166H713.063V21.2158C718.861 18.8655 724.484 17.6 730.634 18.287C730.019 19.0101 729.562 19.5254 729.123 20.0949C722.859 27.7785 720.39 36.4745 722.744 46.3096C723.568 49.8676 725.592 53.0097 728.455 55.1774C733.058 58.7299 738.268 57.8892 741.361 52.8723C742.347 51.1274 743.125 49.267 743.68 47.331C744.33 45.3243 744.207 45.1977 742.274 44.5559C739.504 43.7091 736.923 42.3049 734.684 40.4248C732.855 38.9379 731.402 37.0199 730.446 34.8328C729.49 32.6457 729.06 30.254 729.193 27.8599C729.242 25.8217 729.927 23.854 731.147 22.2473C732.367 20.6407 734.056 19.4804 735.966 18.9378C737.901 18.4851 739.927 18.698 741.733 19.5438C743.539 20.3896 745.025 21.8217 745.964 23.6203C746.454 24.4995 746.852 25.4298 747.15 26.3955C748.55 30.9577 749.081 35.755 748.714 40.5243C748.529 42.8022 748.626 42.9107 750.972 42.7028C752.026 39.8192 751.385 25.1028 749.882 18.296H773.875V33.3649L774.499 33.4825C774.736 32.7864 774.956 32.0904 775.211 31.4124C776.537 27.9231 777.723 24.3616 779.261 20.9717C780.561 18.1152 783.038 16.8135 786.131 16.8226C787.94 16.7856 789.707 17.3883 791.136 18.5301C792.566 19.6718 793.571 21.2835 793.985 23.096C794.24 24.1265 794.424 25.1751 794.67 26.3864C794.961 26.2503 795.238 26.0837 795.496 25.8892C799.3 21.713 804.097 19.4983 809.465 18.4226C815.417 17.1244 821.609 17.6396 827.282 19.9051C832.333 21.9661 836.12 25.383 837.209 31.087C838.562 38.1559 836.84 43.6791 830.102 47.539C825.814 49.9977 821.105 50.7118 816.282 50.8655C815.316 50.8655 814.341 50.8655 813.19 50.8655C813.226 51.3797 813.299 51.8904 813.409 52.3932C814.172 55.1891 815.552 57.766 817.442 59.9231C818.879 61.6453 820.85 62.8049 823.022 63.2067C825.193 63.6085 827.433 63.2278 829.364 62.1288C834.222 59.5525 837.139 55.1593 839.44 50.2599C839.665 49.577 839.743 48.8523 839.669 48.1356C839.669 41.9887 839.827 35.8327 839.616 29.6949C839.362 26.5357 838.934 23.394 838.333 20.2847C838.246 19.7333 838.07 19.1909 837.912 18.5491H861.922V21.0169C861.922 33.0214 861.922 45.026 861.922 57.0305C861.903 58.3277 862.062 59.6213 862.397 60.8723C862.577 61.6344 862.927 62.3431 863.419 62.9425C863.911 63.5419 864.531 64.0158 865.231 64.3268C865.931 64.6378 866.691 64.7775 867.453 64.7349C868.214 64.6924 868.955 64.4686 869.618 64.0813C871.105 63.2726 872.41 62.1516 873.449 60.7909C876.717 56.4339 878.553 51.3627 879.879 46.0655C880.196 44.7909 879.511 44.4655 878.693 43.9231C875.826 42.1157 873.049 40.1607 870.374 38.0655C868.897 36.88 867.678 35.3905 866.793 33.6924C865.908 31.9942 865.377 30.1247 865.234 28.2034C865.056 26.6541 865.214 25.0834 865.697 23.6046C866.18 22.1258 866.976 20.7757 868.028 19.6519C869.572 18.0911 871.632 17.1863 873.795 17.1176C875.959 17.0489 878.069 17.8215 879.704 19.2813C881.51 20.9234 882.793 23.0877 883.385 25.4915C884.776 30.1303 885.316 34.9952 884.975 39.8373C884.799 42.1695 884.808 42.1875 887.488 42.7751C887.707 41.609 887.944 40.4429 888.138 39.2678C890.158 27.0915 898.048 19.5164 909.952 18.07C915.891 17.3469 921.601 17.844 927.057 20.4022C931.59 22.5175 934.832 25.8892 935.842 31.0599C937.257 38.2915 935.174 43.7152 928.919 47.4124C924.588 49.9525 919.809 50.6757 914.924 50.8384C913.949 50.8384 912.974 50.8384 911.823 50.8384C911.83 51.362 911.907 51.882 912.051 52.3842C913.176 54.6892 914.072 57.2022 915.566 59.2271C918.825 63.6294 923.824 64.5423 928.577 61.939C932.75 59.6248 935.491 55.8915 937.696 51.6972C937.953 51.0284 938.055 50.3073 937.995 49.5909C937.995 42.3593 938.082 35.1277 937.898 27.896C937.819 24.7503 937.169 21.6135 936.756 18.3051H960.476V33.4101L960.977 33.5367C961.179 33.0757 961.425 32.6327 961.592 32.1627C962.91 28.5469 964.07 24.9311 965.554 21.4508C966.079 20.129 966.963 18.9911 968.101 18.1733C969.238 17.3556 970.581 16.8929 971.968 16.8406C974.029 16.5837 976.106 17.1716 977.75 18.4774C979.394 19.7831 980.473 21.7019 980.753 23.8192C981.457 27.7664 980.94 31.8413 979.277 35.4712C978.686 36.8273 977.807 38.0298 976.705 38.9903C975.602 39.9508 974.305 40.6449 972.908 41.0214C969.279 42.0791 965.502 39.9186 964.904 36.6734C964.736 36.2637 964.527 35.8729 964.28 35.5073V35.5073ZM699.736 35.2904C701.852 30.7668 705.043 26.8651 709.013 23.9457C709.346 23.684 709.6 23.3297 709.745 22.9247C709.89 22.5196 709.919 22.0804 709.83 21.6587C709.443 16.8316 708.293 12.2214 705.437 8.30731C704.303 6.75397 702.908 5.42222 701.317 4.37512C700.695 3.91927 699.99 3.59969 699.243 3.43622C698.497 3.27276 697.725 3.26888 696.977 3.42484C696.229 3.58081 695.521 3.89328 694.895 4.34287C694.269 4.79246 693.74 5.36957 693.34 6.03839C692.21 7.76931 691.353 9.67301 690.801 11.6791C689.483 16.1988 690.028 20.8452 690.599 25.4282C690.783 26.7864 691.171 28.1068 691.75 29.3423C693.296 32.7141 696.011 34.5401 699.736 35.2904V35.2904ZM919.247 33.4101L918.913 33.3469C918.939 32.9164 918.939 32.4847 918.913 32.0542C918.747 30.1881 918.468 28.3344 918.078 26.5039C917.613 24.696 916.892 22.7164 914.678 22.6169C912.464 22.5175 911.63 24.4248 910.83 26.1062C910.493 26.8215 910.245 27.5778 910.092 28.357C909.073 34.1333 909.618 39.8553 910.707 45.5322C910.962 46.8429 911.718 47.1231 912.86 46.9152C914.02 46.7308 915.098 46.1889 915.953 45.361C916.808 44.5332 917.399 43.4583 917.648 42.2779C918.386 39.4214 918.728 36.4022 919.247 33.4101ZM810.686 34.2147C811.073 37.8305 811.345 41.0576 811.784 44.2666C812.179 47.1412 813.304 47.6926 815.781 46.4181C817.907 45.3152 818.883 43.3084 819.41 41.0938C820.478 36.7361 820.598 32.1894 819.761 27.7785C819.465 26.3694 818.904 25.0336 818.11 23.8463C816.95 22.1107 815.193 22.0384 813.831 23.6113C812.888 24.6704 812.189 25.9339 811.784 27.3084C811.305 29.5991 810.938 31.9131 810.686 34.2418V34.2147ZM880.09 39.1593L880.573 38.9604C880.688 37.6966 880.671 36.4238 880.521 35.1638C880.146 33.4903 879.555 31.876 878.764 30.3638C878.519 30.0449 878.199 29.7949 877.835 29.6368C877.471 29.4788 877.075 29.4179 876.682 29.4599C876.328 29.6514 876.02 29.9194 875.777 30.2456C875.534 30.5718 875.363 30.9483 875.276 31.3491C875.122 32.1335 875.16 32.9451 875.387 33.7105C875.614 34.4759 876.023 35.1711 876.576 35.7333C877.727 37.026 878.948 38.0655 880.108 39.1864L880.09 39.1593ZM743.733 40.6599C744.822 38.5085 743.987 32.8768 742.45 31.4938C742.246 31.2634 741.988 31.0913 741.7 30.994C741.412 30.8967 741.105 30.8777 740.808 30.9386C740.511 30.9995 740.234 31.1384 740.005 31.3418C739.775 31.5452 739.601 31.8062 739.498 32.0994C739.138 32.953 739.043 33.9 739.226 34.8113C739.512 36.0734 740.066 37.2547 740.848 38.2705C741.631 39.2864 742.622 40.1116 743.75 40.687L743.733 40.6599Z" fill="white"/>
<path d="M677.791 80L672.845 73.2294L677.756 66.4587C679.399 68.7186 680.971 70.8881 682.667 73.2022L677.791 80Z" fill="white"/>
</g>
<defs>
<clipPath id="clip0">
<rect width="981" height="80" fill="white"/>
</clipPath>
</defs>
</svg>
