<svg width="200" height="200" viewBox="0 0 200 200" fill="none" xmlns="http://www.w3.org/2000/svg">
<g clip-path="url(#clip0)">
<rect width="200" height="200" fill="#32694A"/>
<path d="M-75.6892 0.786205L-91.9932 42.6897L-98 104.262C-87.4167 123.646 -65.7351 164.808 -63.6757 174.386C-61.6162 183.964 -56.5248 192.06 -54.2365 194.91C-41.0788 202.607 -13.9054 218 -10.473 218H67.6149C69.6743 218 107.946 202.607 126.824 194.91L143.128 167.545C147.419 149.301 156 112.13 156 109.393V79.4621C156 75.3572 147.419 53.2368 143.128 42.6897L121.676 5.91724C111.95 -0.924139 91.4703 -15.4621 87.3513 -18.8828C83.2324 -22.3034 65.6126 -27.7195 57.3176 -30C44.4459 -29.4299 18.1878 -28.1186 16.1284 -27.4345C13.5541 -26.5793 -21.6284 -20.5931 -25.9189 -18.8828C-30.2095 -17.1724 -46.5135 -12.0414 -48.2297 -10.331C-49.6027 -8.96276 -67.1081 -2.34943 -75.6892 0.786205Z" fill="#F6BEBE"/>
<path d="M-1.99324 18.8276L-15.152 52.6207L-20 102.276C-11.4583 117.908 6.04054 151.103 7.7027 158.828C9.36487 166.552 13.4741 173.08 15.3209 175.379C25.9403 181.586 47.8716 194 50.6419 194H113.666C115.328 194 146.216 181.586 161.453 175.379L174.611 153.31C178.074 138.598 185 108.621 185 106.414V82.2759C185 78.9655 178.074 61.1264 174.611 52.6207L157.297 22.9655C149.448 17.4483 132.919 5.72414 129.595 2.96552C126.27 0.206897 112.05 -4.16092 105.355 -6C94.9662 -5.54023 73.7737 -4.48276 72.1115 -3.93103C70.0338 -3.24138 41.6385 1.58621 38.1757 2.96552C34.7128 4.34483 21.5541 8.48276 20.1689 9.86207C19.0608 10.9655 4.93243 16.2989 -1.99324 18.8276Z" stroke="black"/>
</g>
<defs>
<clipPath id="clip0">
<rect width="200" height="200" fill="white"/>
</clipPath>
</defs>
</svg>
